<svg xmlns="http://www.w3.org/2000/svg" viewBox="0 0 49.3 49.2"><path d="M24.6 0C11 0 0 11 0 24.6s11 24.6 24.6 24.6 24.7-11 24.7-24.6S38.2 0 24.6 0zm1.5 9.9c1.1-1.3 3-2.3 4.6-2.3.2 1.8-.5 3.6-1.6 4.9-1.1 1.3-2.9 2.3-4.6 2.2-.3-1.7.6-3.6 1.6-4.8zm8.8 24.8c-1.3 1.9-2.6 3.8-4.7 3.8s-2.7-1.2-5.1-1.2-3.1 1.2-5.1 1.3-3.6-2-4.9-3.9c-2.7-3.8-4.7-10.9-2-15.6 1.4-2.4 3.8-3.8 6.4-3.9 2 0 3.9 1.4 5.1 1.4s3.5-1.7 5.9-1.4c1 0 3.8.4 5.7 3.1-.1.1-3.4 2-3.3 5.9 0 4.7 4.1 6.2 4.2 6.3-.1-.1-.7 2.1-2.2 4.2z" fill="#2468FF"/></svg>
